<?xml version="1.0" encoding="UTF-8"?><svg xmlns="http://www.w3.org/2000/svg" xmlns:xlink="http://www.w3.org/1999/xlink" viewBox="0 0 993 993"><defs><style>.cls-1{fill:#fff;}.cls-2,.cls-3,.cls-4,.cls-5,.cls-6{stroke:#000;stroke-miterlimit:10;}.cls-2,.cls-3,.cls-4,.cls-6{stroke-width:3px;}.cls-3{fill:red;}.cls-4{fill:none;}.cls-5{stroke-linecap:round;stroke-width:20px;}.cls-6{fill:url(#linear-gradient);}</style><linearGradient id="linear-gradient" x1="85.96" y1="496.5" x2="907.04" y2="496.5" gradientTransform="matrix(1, 0, 0, 1, 0, 0)" gradientUnits="userSpaceOnUse"><stop offset="0" stop-color="#ff8c00"/><stop offset="1" stop-color="#ff0808"/></linearGradient></defs><g id="Color"><circle class="cls-4" cx="496.5" cy="496.5" r="495"/><circle class="cls-2" cx="496.5" cy="496.5" r="495"/><circle class="cls-4" cx="496.5" cy="496.5" r="410.54"/><circle class="cls-6" cx="496.5" cy="496.5" r="410.54"/><polyline class="cls-1" points="541.35 304.17 511.14 391.15 648.63 391.15 696.55 522.39 792.37 522.39 734.22 366.34 541.35 304.17 631.97 304.17 586.66 164.6 585.77 95.71 639.24 111.46 734.22 366.34"/><polyline class="cls-1" points="531.69 89.7 585.77 95.71 586.66 164.6 541.35 304.17 511.14 391.15 470.83 515.89 380.94 515.89"/><path class="cls-3" d="M203.08,783.6c2.77-122.02-2.77-244.05,0-366.07h95.87l232.48,323.41V417.53h91.38v464.03h-98.1l-231.13-299.98c-.47,90.36-.95,180.72-1.42,271.07-15.88-9.15-33.59-20.76-51.93-35.43-14.3-11.45-26.63-22.88-37.15-33.62Z"/><path class="cls-4" d="M203.08,783.6c2.77-122.02-2.77-244.05,0-366.07h95.87l232.48,323.41V417.53h91.38v464.03h-98.1l-231.13-299.98c-.47,90.36-.95,180.72-1.42,271.07-15.88-9.15-33.59-20.76-51.93-35.43-14.3-11.45-26.63-22.88-37.15-33.62Z"/><circle cx="822.6" cy="404.43" r="8.2"/><circle cx="839.15" cy="420.93" r="3.4"/><circle cx="341.09" cy="802.97" r="8.2"/><circle cx="352.69" cy="789.43" r="3.4"/><circle cx="417.09" cy="145.73" r="3.4"/><circle cx="428.7" cy="157.33" r="8.2"/><circle cx="113.15" cy="525.84" r="8.2"/><circle cx="101.55" cy="537.45" r="3.4"/><circle cx="736.8" cy="777.83" r="8.2"/><circle cx="736.8" cy="798.17" r="3.4"/><line class="cls-5" x1="878.92" y1="580.54" x2="935.16" y2="580.54"/><line class="cls-5" x1="37.53" y1="404.43" x2="134.39" y2="404.43"/><line class="cls-5" x1="743.94" y1="208.74" x2="840.81" y2="208.74"/><line class="cls-5" x1="324.02" y1="898.33" x2="420.49" y2="907.04"/><line class="cls-5" x1="207.39" y1="135.31" x2="284.75" y2="135.31"/><line class="cls-5" x1="710.5" y1="860.26" x2="775.34" y2="860.26"/></g><g id="Letter_A"><path class="cls-3" d="M380.94,515.89h89.89l40.31-124.75h137.49l47.91,131.24h95.83c-51.05-136.97-102.09-273.95-153.14-410.92-14.58-5.75-32.54-11.56-53.47-15.75-20.37-4.08-38.72-5.64-54.08-6.01-50.25,142.06-100.5,284.13-150.75,426.19Z"/><polygon class="cls-4" points="541.35 304.17 631.97 304.17 586.66 164.6 541.35 304.17"/><path d="M332.89,237.44l-138.01,1.1,1.5-1.5c-.44,.07-.21,139.2-1.81,138.01l-1.19-138.01v-1.51h1.5l138.01,1.12v.79h0Z"/><path d="M654.36,718.14l138.01-1.09-1.5,1.5c.48-.19-.07-139.46,1.89-138.01l1.11,138.01v1.51h-1.5l-138.01-1.1v-.81h0Z"/></g></svg>