<?xml version="1.0" encoding="UTF-8"?><svg xmlns="http://www.w3.org/2000/svg" xmlns:xlink="http://www.w3.org/1999/xlink" viewBox="0 0 988.09 1000"><defs><style>.cls-1{fill:url(#linear-gradient-2);}.cls-2{fill:#fff;}.cls-3{stroke:#fff;}.cls-3,.cls-4{stroke-linecap:round;stroke-linejoin:round;stroke-width:11px;}.cls-3,.cls-4,.cls-5{fill:none;}.cls-4{stroke:#1d1d1b;}.cls-6{fill:orange;}.cls-7{fill:url(#linear-gradient-3);}.cls-8{fill:url(#linear-gradient);}.cls-9{fill:url(#linear-gradient-4);}</style><linearGradient id="linear-gradient" x1="490.14" y1="9.5" x2="490.14" y2="597.75" gradientTransform="matrix(1, 0, 0, 1, 0, 0)" gradientUnits="userSpaceOnUse"><stop offset="0" stop-color="#fff"/><stop offset=".02" stop-color="#fefcfa"/><stop offset=".15" stop-color="#faf1e0"/><stop offset=".3" stop-color="#f8e8cc"/><stop offset=".46" stop-color="#f6e2bd"/><stop offset=".67" stop-color="#f5dfb5"/><stop offset="1" stop-color="wheat"/></linearGradient><linearGradient id="linear-gradient-2" x1="7.32" y1="663.62" x2="977.1" y2="663.62" gradientTransform="matrix(1, 0, 0, 1, 0, 0)" gradientUnits="userSpaceOnUse"><stop offset="0" stop-color="#ff8c00"/><stop offset=".54" stop-color="#ff5900"/><stop offset="1" stop-color="red"/></linearGradient><linearGradient id="linear-gradient-3" x1="54.77" y1="814.21" x2="888.39" y2="814.21" gradientTransform="matrix(1, 0, 0, 1, 0, 0)" gradientUnits="userSpaceOnUse"><stop offset="0" stop-color="red"/><stop offset="1" stop-color="#b22222"/></linearGradient><linearGradient id="linear-gradient-4" x1="263.54" y1="910.03" x2="650.95" y2="910.03" gradientTransform="matrix(1, 0, 0, 1, 0, 0)" gradientUnits="userSpaceOnUse"><stop offset="0" stop-color="#b22222"/><stop offset="1" stop-color="maroon"/></linearGradient></defs><g id="Colour"><path class="cls-8" d="M978.68,500.01c0,25.04-1.88,49.66-5.49,73.7-1.41-36.91-6.78-51.72-12-57.94-1.19-1.43-6.16-6.91-7.15-15.03-.57-4.61,.33-8.56,1.17-11.18-2.91-6.2-4.1-11.48-4.67-15.21-1.41-9.54,.57-14.76-2.66-22.04-1.84-4.2-4.53-7.12-6.53-8.93-1.54,.29-3.99,.57-6.78-.1-3.21-.75-3.85-2-5.32-1.67-3.42,.78-2.36,8.22-6.31,11.03-1.93,1.35-5.57,1.96-12.98-1.67-4.87-3.47-10.4-7.95-16.03-13.68-4.69-4.79-8.52-9.48-11.59-13.72-1.35,1.49-3.11,3.81-4.32,7.01-1.37,3.61-1.07,5.85-1.66,9.36-1.02,6.08-3.15,6.91-5,12.52-2.72,8.22,1,8.95-1,19.03l-23.94-7.01-10.98,24.55-7.49-12.79-17.96,27.82-2.5,1-7.97,7.01-2.99,15.54-10.49,9.03-21.95,24.04-11.98,21.03-13.47,9.03-12.98,7.01h-6.49l-5.98-8.01-9.48-2.51-7.49,1v3.51l-15.48,3-39.42-19.03-6.49-17.88,3.32-10.01v-14.03l-15.97-4.67-9.97-11.36-39.26-4.67-33.93-13.11-11.32-6.95-5.32-5.34h-7.97l-24.29-8.03-6.31-9.34-10.65-30.69-19.29-37.46-23.3-41.4-25.19-6.06c.18-1.63,.29-3.36-.04-5.59-.39-2.73-1.45-6.12-4.05-9.89-.74,1.65-1.8,3.28-3.32,3.51-2.25,.35-3.42-2.69-5.16-2.67-3.44,.02-4.94,12.09-9.15,25.04-4.05,12.48-6.72,13.89-9.36,21.72h-23.9l-11.98-9.03-16.96-23.1-22.94-17.99-18.96,7.69c-5.45-2-7.92-6.53-8.48-7.69-1.47,3.08-3.46,7.97-4.67,14.21-1.54,7.99-.76,12.68-1.07,20.37-.06,1.41-.57,11.89-3.99,23.29-1.76,5.83-6.63,19.68-18.47,31.83-6.37,6.51-13.19,10.93-14.97,9.52-1.02-.82-.06-3.3-1.25-4.02-1.25-.77-3.83,1.1-6.23,3.26-5.49,5.02-10.98,10.03-16.48,15.03-3.32,1.24-8.36,2.57-14.21,1.77-7.21-1-8.76-4.3-16.73-5.51-8.11-1.26-14.44,.94-15.97,1.49-7.41,2.75-11.65,7.55-12.47,8.52-4.3,5.04-3.65,7.99-6.49,11.28-2.97,3.47-9.28,6.69-24.23,4.47-8.87,7.61-17.77,15.23-26.66,22.82-21.4,26.18-33.87,31.36-41.41,30.83-2.15-.16-7.86-1.06-13.97,1.75-5.24,2.39-6.49,5.53-11.47,9.03-3.34,2.32-8.66,5-16.94,5.79-1.21-13.99-1.82-28.14-1.82-42.42C1.59,229.11,220.33,9.5,490.13,9.5s488.56,219.61,488.56,490.51Z"/><path class="cls-6" d="M977.1,573.71c-11.98,79.9-43.17,153.48-88.71,215.86-58.75,80.53-141.4,142.4-237.44,175.07-49.25,16.78-102.02,25.86-156.92,25.86-83.35,0-161.84-20.96-230.5-57.94h-.02c-90.33-48.62-163.66-124.95-208.75-217.65-25.7-52.86-42.21-111.06-47.45-172.48,8.29-.78,13.6-3.47,16.94-5.79,4.98-3.49,6.23-6.63,11.47-9.03,6.12-2.81,11.82-1.9,13.97-1.75,7.54,.53,20.01-4.65,41.41-30.83,8.89-7.59,17.78-15.21,26.66-22.82,14.95,2.22,21.26-1,24.23-4.47,2.83-3.3,2.19-6.24,6.49-11.28,.82-.96,5.06-5.77,12.47-8.52,1.52-.55,7.86-2.75,15.97-1.49,7.97,1.22,9.52,4.51,16.73,5.51,5.84,.8,10.89-.53,14.21-1.77,5.49-5,10.98-10.01,16.48-15.03,2.4-2.16,4.98-4.02,6.23-3.26,1.19,.73,.23,3.2,1.25,4.02,1.78,1.41,8.6-3,14.97-9.52,11.84-12.15,16.71-26,18.47-31.83,3.42-11.4,3.93-21.88,3.99-23.29,.31-7.69-.47-12.38,1.07-20.37,1.21-6.24,3.21-11.13,4.67-14.21,.57,1.16,3.03,5.69,8.48,7.69l18.96-7.69,22.94,17.99,16.96,23.1,11.98,9.03h23.9c2.64-7.83,5.32-9.24,9.36-21.72,4.2-12.95,5.71-25.02,9.15-25.04,1.74-.02,2.91,3.02,5.16,2.67,1.52-.24,2.58-1.86,3.32-3.51,2.6,3.77,3.65,7.16,4.05,9.89,.33,2.24,.22,3.96,.04,5.59l25.19,6.06,23.3,41.4,19.29,37.46,10.65,30.69,6.31,9.34,24.29,8.03h7.97l5.32,5.34,11.32,6.95,33.93,13.11,39.26,4.67,9.97,11.36,15.97,4.67v14.03l-3.32,10.01,6.49,17.88,39.42,19.03,15.48-3v-3.51l7.49-1,9.48,2.51,5.98,8.01h6.49l12.98-7.01,13.47-9.03,11.98-21.03,21.95-24.04,10.49-9.03,2.99-15.54,7.97-7.01,2.5-1,17.96-27.82,7.49,12.79,10.98-24.55,23.94,7.01c1.99-10.09-1.72-10.81,1-19.03,1.86-5.61,3.99-6.44,5-12.52,.59-3.51,.29-5.75,1.66-9.36,1.21-3.2,2.97-5.51,4.32-7.01,3.07,4.24,6.9,8.93,11.59,13.72,5.63,5.73,11.16,10.2,16.03,13.68,7.41,3.63,11.04,3.02,12.98,1.67,3.95-2.81,2.89-10.24,6.31-11.03,1.47-.33,2.11,.92,5.32,1.67,2.79,.67,5.24,.39,6.78,.1,1.99,1.81,4.69,4.73,6.53,8.93,3.22,7.28,1.25,12.5,2.66,22.04,.57,3.73,1.76,9.01,4.67,15.21-.84,2.63-1.74,6.57-1.17,11.18,1,8.12,5.96,13.6,7.15,15.03,5.22,6.22,10.59,21.03,12,57.94Z"/><path class="cls-1" d="M977.1,573.71c-11.98,79.9-43.17,153.48-88.71,215.86-58.75,80.53-141.4,142.4-237.44,175.07-49.25,16.78-102.02,25.86-156.92,25.86-83.35,0-161.84-20.96-230.5-57.94h-.02c-90.33-48.62-163.66-124.95-208.75-217.65-25.7-52.86-42.21-111.06-47.45-172.48,8.29-.78,13.6-3.47,16.94-5.79,4.98-3.49,6.23-6.63,11.47-9.03,6.12-2.81,11.82-1.9,13.97-1.75,7.54,.53,20.01-4.65,41.41-30.83,8.89-7.59,17.78-15.21,26.66-22.82,14.95,2.22,21.26-1,24.23-4.47,2.83-3.3,2.19-6.24,6.49-11.28,.82-.96,5.06-5.77,12.47-8.52,1.52-.55,7.86-2.75,15.97-1.49,7.97,1.22,9.52,4.51,16.73,5.51,5.84,.8,10.89-.53,14.21-1.77,5.49-5,10.98-10.01,16.48-15.03,2.4-2.16,4.98-4.02,6.23-3.26,1.19,.73,.23,3.2,1.25,4.02,1.78,1.41,8.6-3,14.97-9.52,11.84-12.15,16.71-26,18.47-31.83,3.42-11.4,3.93-21.88,3.99-23.29,.31-7.69-.47-12.38,1.07-20.37,1.21-6.24,3.21-11.13,4.67-14.21,.57,1.16,3.03,5.69,8.48,7.69,3.44,1.26,6.49,.94,7.97,.67,.92,3.14,2.64,7.77,6.1,12.44,4.14,5.61,7.97,6,11.71,10.44,4.14,4.94,3.4,8.67,5.82,18.88,2.62,11.13,6.1,25.84,16.79,32.73,2.72,1.75,7.25,3.87,14.31,4,16.08-.94,22.92-6.04,26.11-10.85,3.56-5.34,1.41-8.48,4.5-20.88,.49-1.94,.96-3.57,1.45-5,2.64-7.83,5.32-9.24,9.36-21.72,4.2-12.95,5.71-25.02,9.15-25.04,1.74-.02,2.91,3.02,5.16,2.67,1.52-.24,2.58-1.86,3.32-3.51,2.6,3.77,3.65,7.16,4.05,9.89,.33,2.24,.22,3.96,.04,5.59-.21,2.26-.55,4.32,.08,7.22,.88,4.04,2.64,5.32,4.83,9.1,4.63,8.14,1.64,11.3,4.98,22.8,2.35,8.06,4.08,7.4,8.72,19.41,3.09,7.93,4.53,13.91,5.26,16.66,4.92,18.74,18.2,47.94,28.44,67.64,15.46,29.71,23.45,44.31,34.77,55.61,12.63,12.62,22.89,17.54,39.73,37.26,5.55,6.49,12.9,15.87,13.5,28.86,.27,6.12-1.02,11.2-2.17,14.54,.51,1.55,1.62,4.18,4.16,6.18,1.86,1.47,4.26,2.43,8.97,2.67,9.6,.49,11.08-2.92,16.63-2,5.75,.92,4.83,4.67,14.64,10.67,7.74,4.73,10.81,3.94,15.19,8.42,3.65,3.73,5.3,8.12,6.12,11.3,6.02,4.08,10.57,8.08,13.78,11.2,2.91,2.83,5.43,5.28,8.03,9.1,.8,1.16,1.39,2.14,1.88,3.04,2.15,3.96,3.36,7.01,3.91,8.38,.47,1.2,3.26,8.32,6.45,11.71,5.59,5.93,16.22,4.4,22.49,3.47,16.85-2.45,28.01-12.22,29.45-13.52,13.7-12.34,9.07-20.72,21.46-27.57,6.06-3.34,12.66-4.36,18.18-11.66,1.95-2.57,2.27-4.38,4.26-7.87,5.22-9.14,10.1-16.31,13.49-21.05,14.58-20.39,36.8-41.4,55.68-63.54,4.87-5.71,7.15-8.73,12.18-13.62,7.06-6.83,9.75-7.89,12.98-13.01,4.03-6.4,3.03-9.87,5.49-16.03,2.21-5.53,7.04-12.87,18.96-19.54,5.16-3.14,10.98-7.81,10.98-13.52,0-3.12-1.74-3.9-2.5-8.03-1.19-6.42,2.23-8.63,3.99-17.54,1.99-10.09-1.72-10.81,1-19.03,1.86-5.61,3.99-6.44,5-12.52,.59-3.51,.29-5.75,1.66-9.36,1.21-3.2,2.97-5.51,4.32-7.01,3.07,4.24,6.9,8.93,11.59,13.72,5.63,5.73,11.16,10.2,16.03,13.68,7.41,3.63,11.04,3.02,12.98,1.67,3.95-2.81,2.89-10.24,6.31-11.03,1.47-.33,2.11,.92,5.32,1.67,2.79,.67,5.24,.39,6.78,.1,1.99,1.81,4.69,4.73,6.53,8.93,3.22,7.28,1.25,12.5,2.66,22.04,.57,3.73,1.76,9.01,4.67,15.21-.84,2.63-1.74,6.57-1.17,11.18,1,8.12,5.96,13.6,7.15,15.03,5.22,6.22,10.59,21.03,12,57.94Z"/><path id="_nd_Mountain" class="cls-7" d="M888.39,789.57c-58.75,80.53-141.4,142.4-237.44,175.07-49.25,16.78-102.02,25.86-156.92,25.86-83.35,0-161.84-20.96-230.5-57.94h-.02c-90.33-48.62-163.66-124.95-208.75-217.65l5.16-2.43c6.2-7.36,12-9.83,16.3-10.67,6.35-1.26,8.5,1.22,14.31-1,4.63-1.79,3.71-3.53,13.35-10.32,4.96-3.49,6.35-3.83,8.68-6.59,3.24-3.85,2.6-5.57,5.59-7.81,3.56-2.65,5.65-1.08,9.32-4,3.15-2.51,3.05-4.83,4.98-5.02,3.03-.31,3.91,5.32,7.97,6.02,3.67,.63,5.26-3.53,10.65-4.36,3.64-.53,5.79,.92,8.91,1.86,12.61,3.83,30.98-3.73,38.66-10.2,1.25-1.06,3.87-3.47,7.33-3.34,2.74,.1,3.77,1.73,6.64,2.34,3.79,.78,7.13-.98,9.3-2.12,8.89-4.69,18.12-8.75,26.95-13.58,6.96-3.81,17.8-7.22,34.61-5.1,4.42,5.47,8.46,9.48,11.35,12.15,9.17,8.46,13.8,9.89,18.57,17.66,3.38,5.49,5,9.54,5,9.54,2.5,6.24,2.89,10.69,5.49,11.26,1.86,.41,2.56-1.69,4.73-1.51,3.11,.27,3.85,4.77,7.99,10.28,2.93,3.9,5.92,7.87,10.48,8.77,4.51,.88,5.98-2.18,12.84-1.31,2.93,.35,5.3,1.24,6.63,1.81,2.85,1.24,4.96,2.79,6.35,3.98,4.2-3.98,14.36-12.46,29.65-14.76,7.07-1.06,13.17-.49,17.63,.33,1.17-.41,2.76-.77,3.67,0,1.5,1.3-.63,4.3,.66,8.03,.82,2.39,2.97,4.83,5.37,5.08,2.48,.24,3.52-2.08,5.59-2.41,4.91-.8,10.51,10.24,12.31,13.7,7.58,14.48,17.71,25.69,37.91,48.09,1.64,1.81,4.44,4.83,8.66,8.01,4.73,3.59,8.33,5.2,11.65,7.02,4.4,2.41,10.53,6.46,17.3,13.36,2.89,.06,7.04,.63,10.73,3.26,4.96,3.53,7.11,9.36,9.22,8.75,1.43-.39,1.15-3.26,2.66-3.67,1.8-.49,4.03,3.02,5.84,5.32,4.14,5.3,5.98,4.1,15.87,11.64,8.83,6.75,8.07,8.24,13.47,11.28,5.94,3.32,11.77,4.24,15.73,4.49,28.01-33.49,39.58-39.81,44.62-38.01,.55,.2,1.52,.67,2.95,.61,2.11-.08,5.67-1.33,16.61-18.66,1.95-3.1,3.77-6.1,7.33-7.4,2.21-.78,3.52-.92,5.34-1.31,5.3-1.18,8.78-5.06,11.96-8.87,7.68-9.1,13.7-17.44,16.3-20.88,3.71-4.87,9.62-11.66,18.64-18.7,.92-.63,4.5-2.9,8.78-1.98,2.76,.61,4.5,2.32,5.69,3.32,2.48,2.06,2.85,4.02,4.5,6.85,2.52,4.38,5.71,6.85,9.15,9.52,2.58,2,6.61,4.67,12.14,6.69,1.64,.57,7.17,2.3,12.8-.18,1.9-.82,4.81-2.1,6.16-5,.98-2.08,.68-3.98,1.5-4.18,1.02-.26,1.56,2.69,3.99,4.34,3.54,2.41,9.89,1.39,13.31-1.82,1.8-1.71,2.05-3.32,3.32-3.36,1.84-.02,2.03,3.28,5.16,5.69,2.76,2.12,6.64,2.69,9.81,1.82,.64-.16,4.1-1.16,6.39-4.26,1.29-1.73,1.43-3.1,2.42-3.26,1.29-.18,2.17,1.94,4.16,4.36,.35,.43,4.22,5,9.81,6.85,1.64,.53,4.42,1.18,8.15,.67,3.46,6.18,9.24,14.85,18.47,23.21,8.11,7.34,16.1,11.95,22.08,14.79Z"/><path id="_st_Mountain" class="cls-9" d="M650.95,964.64c-49.25,16.78-102.02,25.86-156.92,25.86-83.35,0-161.84-20.96-230.5-57.94,9.86-1.44,30.8-5.89,50.88-22.19,14.48-11.76,22.66-24.92,26.94-33.23,10.42-13.14,20.85-26.28,31.27-39.42,2.52-1.95,6.77-4.74,12.65-6.51,6.13-1.84,11.41-1.78,14.64-1.5,.34,1.38,1.52,5.36,5.32,8.51,3.18,2.63,6.53,3.3,7.99,3.5,2.22,12.29,4.86,22.33,6.98,29.57,5.07,17.25,8.09,21.37,11.98,24.05,6.29,4.32,13.71,4.06,17.96,3.51,1.89,5.23,3.78,10.46,5.66,15.69,4.87,.15,11.63,.86,19.29,3.34,7.59,2.46,13.44,5.8,17.46,8.52,3.15-1.54,12.61-5.64,23.45-2.5,3.51,1.02,6.34,2.55,8.48,4.01,1.09,3.99,3.39,10.31,8.48,16.53,8.4,10.25,19.07,13.73,23.29,14.86,8.91,3.8,22.49,8.38,39.59,9.69,18.64,1.43,33.88-1.61,43.57-4.35h11.53Z"/></g><g id="Outline"><path class="cls-4" d="M982.59,500.01c0,25.04-1.88,49.66-5.49,73.7-1.41-36.91-6.78-51.72-12-57.94-1.19-1.43-6.16-6.91-7.15-15.03-.57-4.61,.33-8.56,1.17-11.18-2.91-6.2-4.1-11.48-4.67-15.21-1.41-9.54,.57-14.76-2.66-22.04-1.84-4.2-4.53-7.12-6.53-8.93-1.54,.29-3.99,.57-6.78-.1-3.21-.75-3.85-2-5.32-1.67-3.42,.78-2.36,8.22-6.31,11.03-1.93,1.35-5.57,1.96-12.98-1.67-4.87-3.47-10.4-7.95-16.03-13.68-4.69-4.79-8.52-9.48-11.59-13.72-1.35,1.49-3.11,3.81-4.32,7.01-1.37,3.61-1.07,5.85-1.66,9.36-1.02,6.08-3.15,6.91-5,12.52-2.72,8.22,1,8.95-1,19.03l-23.94-7.01-10.98,24.55-7.49-12.79-17.96,27.82-2.5,1-7.97,7.01-2.99,15.54-10.49,9.03-21.95,24.04-11.98,21.03-13.47,9.03-12.98,7.01h-6.49l-5.98-8.01-9.48-2.51-7.49,1v3.51l-15.48,3-39.42-19.03-6.49-17.88,3.32-10.01v-14.03l-15.97-4.67-9.97-11.36-39.26-4.67-33.93-13.11-11.32-6.95-5.32-5.34h-7.97l-24.29-8.03-6.31-9.34-10.65-30.69-19.29-37.46-23.3-41.4-25.19-6.06c.18-1.63,.29-3.36-.04-5.59-.39-2.73-1.45-6.12-4.05-9.89-.74,1.65-1.8,3.28-3.32,3.51-2.25,.35-3.42-2.69-5.16-2.67-3.44,.02-4.94,12.09-9.15,25.04-4.05,12.48-6.72,13.89-9.36,21.72h-23.9l-11.98-9.03-16.96-23.1-22.94-17.99-18.96,7.69c-5.45-2-7.92-6.53-8.48-7.69-1.47,3.08-3.46,7.97-4.67,14.21-1.54,7.99-.76,12.68-1.07,20.37-.06,1.41-.57,11.89-3.99,23.29-1.76,5.83-6.63,19.68-18.47,31.83-6.37,6.51-13.19,10.93-14.97,9.52-1.02-.82-.06-3.3-1.25-4.02-1.25-.77-3.83,1.1-6.23,3.26-5.49,5.02-10.98,10.03-16.48,15.03-3.32,1.24-8.36,2.57-14.21,1.77-7.21-1-8.76-4.3-16.73-5.51-8.11-1.26-14.44,.94-15.97,1.49-7.41,2.75-11.65,7.55-12.47,8.52-4.3,5.04-3.65,7.99-6.49,11.28-2.97,3.47-9.28,6.69-24.23,4.47-8.87,7.61-17.77,15.23-26.66,22.82-21.4,26.18-33.87,31.36-41.41,30.83-2.15-.16-7.86-1.06-13.97,1.75-5.24,2.39-6.49,5.53-11.47,9.03-3.34,2.32-8.66,5-16.94,5.79-1.21-13.99-1.82-28.14-1.82-42.42C5.5,229.11,224.23,9.5,494.04,9.5s488.56,219.61,488.56,490.51Z"/><path class="cls-4" d="M977.1,573.71c-11.98,79.9-43.17,153.48-88.71,215.86-58.75,80.53-141.4,142.4-237.44,175.07-49.25,16.78-102.02,25.86-156.92,25.86-83.35,0-161.84-20.96-230.5-57.94h-.02c-90.33-48.62-163.66-124.95-208.75-217.65-25.7-52.86-42.21-111.06-47.45-172.48,8.29-.78,13.6-3.47,16.94-5.79,4.98-3.49,6.23-6.63,11.47-9.03,6.12-2.81,11.82-1.9,13.97-1.75,7.54,.53,20.01-4.65,41.41-30.83,8.89-7.59,17.78-15.21,26.66-22.82,14.95,2.22,21.26-1,24.23-4.47,2.83-3.3,2.19-6.24,6.49-11.28,.82-.96,5.06-5.77,12.47-8.52,1.52-.55,7.86-2.75,15.97-1.49,7.97,1.22,9.52,4.51,16.73,5.51,5.84,.8,10.89-.53,14.21-1.77,5.49-5,10.98-10.01,16.48-15.03,2.4-2.16,4.98-4.02,6.23-3.26,1.19,.73,.23,3.2,1.25,4.02,1.78,1.41,8.6-3,14.97-9.52,11.84-12.15,16.71-26,18.47-31.83,3.42-11.4,3.93-21.88,3.99-23.29,.31-7.69-.47-12.38,1.07-20.37,1.21-6.24,3.21-11.13,4.67-14.21,.57,1.16,3.03,5.69,8.48,7.69l18.96-7.69,22.94,17.99,16.96,23.1,11.98,9.03h23.9c2.64-7.83,5.32-9.24,9.36-21.72,4.2-12.95,5.71-25.02,9.15-25.04,1.74-.02,2.91,3.02,5.16,2.67,1.52-.24,2.58-1.86,3.32-3.51,2.6,3.77,3.65,7.16,4.05,9.89,.33,2.24,.22,3.96,.04,5.59l25.19,6.06,23.3,41.4,19.29,37.46,10.65,30.69,6.31,9.34,24.29,8.03h7.97l5.32,5.34,11.32,6.95,33.93,13.11,39.26,4.67,9.97,11.36,15.97,4.67v14.03l-3.32,10.01,6.49,17.88,39.42,19.03,15.48-3v-3.51l7.49-1,9.48,2.51,5.98,8.01h6.49l12.98-7.01,13.47-9.03,11.98-21.03,21.95-24.04,10.49-9.03,2.99-15.54,7.97-7.01,2.5-1,17.96-27.82,7.49,12.79,10.98-24.55,23.94,7.01c1.99-10.09-1.72-10.81,1-19.03,1.86-5.61,3.99-6.44,5-12.52,.59-3.51,.29-5.75,1.66-9.36,1.21-3.2,2.97-5.51,4.32-7.01,3.07,4.24,6.9,8.93,11.59,13.72,5.63,5.73,11.16,10.2,16.03,13.68,7.41,3.63,11.04,3.02,12.98,1.67,3.95-2.81,2.89-10.24,6.31-11.03,1.47-.33,2.11,.92,5.32,1.67,2.79,.67,5.24,.39,6.78,.1,1.99,1.81,4.69,4.73,6.53,8.93,3.22,7.28,1.25,12.5,2.66,22.04,.57,3.73,1.76,9.01,4.67,15.21-.84,2.63-1.74,6.57-1.17,11.18,1,8.12,5.96,13.6,7.15,15.03,5.22,6.22,10.59,21.03,12,57.94Z"/><path class="cls-4" d="M977.1,573.71c-11.98,79.9-43.17,153.48-88.71,215.86-58.75,80.53-141.4,142.4-237.44,175.07-49.25,16.78-102.02,25.86-156.92,25.86-83.35,0-161.84-20.96-230.5-57.94h-.02c-90.33-48.62-163.66-124.95-208.75-217.65-25.7-52.86-42.21-111.06-47.45-172.48,8.29-.78,13.6-3.47,16.94-5.79,4.98-3.49,6.23-6.63,11.47-9.03,6.12-2.81,11.82-1.9,13.97-1.75,7.54,.53,20.01-4.65,41.41-30.83,8.89-7.59,17.78-15.21,26.66-22.82,14.95,2.22,21.26-1,24.23-4.47,2.83-3.3,2.19-6.24,6.49-11.28,.82-.96,5.06-5.77,12.47-8.52,1.52-.55,7.86-2.75,15.97-1.49,7.97,1.22,9.52,4.51,16.73,5.51,5.84,.8,10.89-.53,14.21-1.77,5.49-5,10.98-10.01,16.48-15.03,2.4-2.16,4.98-4.02,6.23-3.26,1.19,.73,.23,3.2,1.25,4.02,1.78,1.41,8.6-3,14.97-9.52,11.84-12.15,16.71-26,18.47-31.83,3.42-11.4,3.93-21.88,3.99-23.29,.31-7.69-.47-12.38,1.07-20.37,1.21-6.24,3.21-11.13,4.67-14.21,.57,1.16,3.03,5.69,8.48,7.69,3.44,1.26,6.49,.94,7.97,.67,.92,3.14,2.64,7.77,6.1,12.44,4.14,5.61,7.97,6,11.71,10.44,4.14,4.94,3.4,8.67,5.82,18.88,2.62,11.13,6.1,25.84,16.79,32.73,2.72,1.75,7.25,3.87,14.31,4,16.08-.94,22.92-6.04,26.11-10.85,3.56-5.34,1.41-8.48,4.5-20.88,.49-1.94,.96-3.57,1.45-5,2.64-7.83,5.32-9.24,9.36-21.72,4.2-12.95,5.71-25.02,9.15-25.04,1.74-.02,2.91,3.02,5.16,2.67,1.52-.24,2.58-1.86,3.32-3.51,2.6,3.77,3.65,7.16,4.05,9.89,.33,2.24,.22,3.96,.04,5.59-.21,2.26-.55,4.32,.08,7.22,.88,4.04,2.64,5.32,4.83,9.1,4.63,8.14,1.64,11.3,4.98,22.8,2.35,8.06,4.08,7.4,8.72,19.41,3.09,7.93,4.53,13.91,5.26,16.66,4.92,18.74,18.2,47.94,28.44,67.64,15.46,29.71,23.45,44.31,34.77,55.61,12.63,12.62,22.89,17.54,39.73,37.26,5.55,6.49,12.9,15.87,13.5,28.86,.27,6.12-1.02,11.2-2.17,14.54,.51,1.55,1.62,4.18,4.16,6.18,1.86,1.47,4.26,2.43,8.97,2.67,9.6,.49,11.08-2.92,16.63-2,5.75,.92,4.83,4.67,14.64,10.67,7.74,4.73,10.81,3.94,15.19,8.42,3.65,3.73,5.3,8.12,6.12,11.3,6.02,4.08,10.57,8.08,13.78,11.2,2.91,2.83,5.43,5.28,8.03,9.1,.8,1.16,1.39,2.14,1.88,3.04,2.15,3.96,3.36,7.01,3.91,8.38,.47,1.2,3.26,8.32,6.45,11.71,5.59,5.93,16.22,4.4,22.49,3.47,16.85-2.45,28.01-12.22,29.45-13.52,13.7-12.34,9.07-20.72,21.46-27.57,6.06-3.34,12.66-4.36,18.18-11.66,1.95-2.57,2.27-4.38,4.26-7.87,5.22-9.14,10.1-16.31,13.49-21.05,14.58-20.39,36.8-41.4,55.68-63.54,4.87-5.71,7.15-8.73,12.18-13.62,7.06-6.83,9.75-7.89,12.98-13.01,4.03-6.4,3.03-9.87,5.49-16.03,2.21-5.53,7.04-12.87,18.96-19.54,5.16-3.14,10.98-7.81,10.98-13.52,0-3.12-1.74-3.9-2.5-8.03-1.19-6.42,2.23-8.63,3.99-17.54,1.99-10.09-1.72-10.81,1-19.03,1.86-5.61,3.99-6.44,5-12.52,.59-3.51,.29-5.75,1.66-9.36,1.21-3.2,2.97-5.51,4.32-7.01,3.07,4.24,6.9,8.93,11.59,13.72,5.63,5.73,11.16,10.2,16.03,13.68,7.41,3.63,11.04,3.02,12.98,1.67,3.95-2.81,2.89-10.24,6.31-11.03,1.47-.33,2.11,.92,5.32,1.67,2.79,.67,5.24,.39,6.78,.1,1.99,1.81,4.69,4.73,6.53,8.93,3.22,7.28,1.25,12.5,2.66,22.04,.57,3.73,1.76,9.01,4.67,15.21-.84,2.63-1.74,6.57-1.17,11.18,1,8.12,5.96,13.6,7.15,15.03,5.22,6.22,10.59,21.03,12,57.94Z"/><path id="_nd_Mountain-2" class="cls-4" d="M888.39,789.57c-58.75,80.53-141.4,142.4-237.44,175.07-49.25,16.78-102.02,25.86-156.92,25.86-83.35,0-161.84-20.96-230.5-57.94h-.02c-90.33-48.62-163.66-124.95-208.75-217.65l5.16-2.43c6.2-7.36,12-9.83,16.3-10.67,6.35-1.26,8.5,1.22,14.31-1,4.63-1.79,3.71-3.53,13.35-10.32,4.96-3.49,6.35-3.83,8.68-6.59,3.24-3.85,2.6-5.57,5.59-7.81,3.56-2.65,5.65-1.08,9.32-4,3.15-2.51,3.05-4.83,4.98-5.02,3.03-.31,3.91,5.32,7.97,6.02,3.67,.63,5.26-3.53,10.65-4.36,3.64-.53,5.79,.92,8.91,1.86,12.61,3.83,30.98-3.73,38.66-10.2,1.25-1.06,3.87-3.47,7.33-3.34,2.74,.1,3.77,1.73,6.64,2.34,3.79,.78,7.13-.98,9.3-2.12,8.89-4.69,18.12-8.75,26.95-13.58,6.96-3.81,17.8-7.22,34.61-5.1,4.42,5.47,8.46,9.48,11.35,12.15,9.17,8.46,13.8,9.89,18.57,17.66,3.38,5.49,5,9.54,5,9.54,2.5,6.24,2.89,10.69,5.49,11.26,1.86,.41,2.56-1.69,4.73-1.51,3.11,.27,3.85,4.77,7.99,10.28,2.93,3.9,5.92,7.87,10.48,8.77,4.51,.88,5.98-2.18,12.84-1.31,2.93,.35,5.3,1.24,6.63,1.81,2.85,1.24,4.96,2.79,6.35,3.98,4.2-3.98,14.36-12.46,29.65-14.76,7.07-1.06,13.17-.49,17.63,.33,1.17-.41,2.76-.77,3.67,0,1.5,1.3-.63,4.3,.66,8.03,.82,2.39,2.97,4.83,5.37,5.08,2.48,.24,3.52-2.08,5.59-2.41,4.91-.8,10.51,10.24,12.31,13.7,7.58,14.48,17.71,25.69,37.91,48.09,1.64,1.81,4.44,4.83,8.66,8.01,4.73,3.59,8.33,5.2,11.65,7.02,4.4,2.41,10.53,6.46,17.3,13.36,2.89,.06,7.04,.63,10.73,3.26,4.96,3.53,7.11,9.36,9.22,8.75,1.43-.39,1.15-3.26,2.66-3.67,1.8-.49,4.03,3.02,5.84,5.32,4.14,5.3,5.98,4.1,15.87,11.64,8.83,6.75,8.07,8.24,13.47,11.28,5.94,3.32,11.77,4.24,15.73,4.49,28.01-33.49,39.58-39.81,44.62-38.01,.55,.2,1.52,.67,2.95,.61,2.11-.08,5.67-1.33,16.61-18.66,1.95-3.1,3.77-6.1,7.33-7.4,2.21-.78,3.52-.92,5.34-1.31,5.3-1.18,8.78-5.06,11.96-8.87,7.68-9.1,13.7-17.44,16.3-20.88,3.71-4.87,9.62-11.66,18.64-18.7,.92-.63,4.5-2.9,8.78-1.98,2.76,.61,4.5,2.32,5.69,3.32,2.48,2.06,2.85,4.02,4.5,6.85,2.52,4.38,5.71,6.85,9.15,9.52,2.58,2,6.61,4.67,12.14,6.69,1.64,.57,7.17,2.3,12.8-.18,1.9-.82,4.81-2.1,6.16-5,.98-2.08,.68-3.98,1.5-4.18,1.02-.26,1.56,2.69,3.99,4.34,3.54,2.41,9.89,1.39,13.31-1.82,1.8-1.71,2.05-3.32,3.32-3.36,1.84-.02,2.03,3.28,5.16,5.69,2.76,2.12,6.64,2.69,9.81,1.82,.64-.16,4.1-1.16,6.39-4.26,1.29-1.73,1.43-3.1,2.42-3.26,1.29-.18,2.17,1.94,4.16,4.36,.35,.43,4.22,5,9.81,6.85,1.64,.53,4.42,1.18,8.15,.67,3.46,6.18,9.24,14.85,18.47,23.21,8.11,7.34,16.1,11.95,22.08,14.79Z"/><path id="_st_Mountain-2" class="cls-4" d="M650.95,964.64c-49.25,16.78-102.02,25.86-156.92,25.86-83.35,0-161.84-20.96-230.5-57.94,9.86-1.44,30.8-5.89,50.88-22.19,14.48-11.76,22.66-24.92,26.94-33.23,10.42-13.14,20.85-26.28,31.27-39.42,2.52-1.95,6.77-4.74,12.65-6.51,6.13-1.84,11.41-1.78,14.64-1.5,.34,1.38,1.52,5.36,5.32,8.51,3.18,2.63,6.53,3.3,7.99,3.5,2.22,12.29,4.86,22.33,6.98,29.57,5.07,17.25,8.09,21.37,11.98,24.05,6.29,4.32,13.71,4.06,17.96,3.51,1.89,5.23,3.78,10.46,5.66,15.69,4.87,.15,11.63,.86,19.29,3.34,7.59,2.46,13.44,5.8,17.46,8.52,3.15-1.54,12.61-5.64,23.45-2.5,3.51,1.02,6.34,2.55,8.48,4.01,1.09,3.99,3.39,10.31,8.48,16.53,8.4,10.25,19.07,13.73,23.29,14.86,8.91,3.8,22.49,8.38,39.59,9.69,18.64,1.43,33.88-1.61,43.57-4.35h11.53Z"/><path id="_A__letter" class="cls-3" d="M140.77,641.34h100.8c1.16-17.77-3.29-42.46,6.99-70.14,9.3-25.05,21.14-44.46,30.94-58.11,10.77,11.74,26.69,32,37.92,61.12,10.55,27.35,4.77,51.57,4.99,67.13h88.82l-132.19-300.27-138.26,300.27Z"/><polygon class="cls-3" points="580.46 641.34 669.86 641.34 669.86 491.21 850.92 641.34 850.92 346.43 761.52 346.43 761.52 493.88 580.46 346.43 580.46 641.34"/><polygon class="cls-2" points="580.46 641.34 669.86 641.34 669.86 491.21 850.92 641.34 850.92 346.43 761.52 346.43 761.52 493.88 580.46 346.43 580.46 641.34"/><g id="Gap"><polyline class="cls-5" points="279.49 513.09 256.54 488.54 279.49 419.91 305.44 488.54 279.49 513.09"/><polygon class="cls-2" points="143.76 641.34 241.57 641.34 254.03 557.7 276 509.35 256.54 488.54 279.49 419.91 305.44 488.54 284.32 508.52 311.23 559.94 322.4 641.34 411.22 641.34 279.58 344.43 143.76 641.34"/></g></g></svg>